<svg width="104" height="36" viewBox="0 0 104 36" fill="none" xmlns="http://www.w3.org/2000/svg">
<path d="M9.16396 11.2432C5.47012 11.2432 2.48275 14.2608 2.48275 18.0354C2.48275 21.81 5.46003 24.868 9.16396 24.868C12.8679 24.868 15.8048 21.8806 15.8048 18.0354C15.8048 14.1902 12.8275 11.2432 9.16396 11.2432ZM9.16396 27.3911C6.71149 27.3911 4.41041 26.4122 2.6745 24.6359C0.938599 22.9 0 20.5585 0 18.0354C0 15.5123 0.938599 13.1708 2.6745 11.4248C4.41041 9.65866 6.75186 8.67969 9.16396 8.67969C11.7678 8.67969 13.9882 9.57791 15.7644 11.3239C17.349 12.858 18.0655 15.0178 18.9335 17.4702L22.2943 26.9067H19.65L17.6517 21.7696C15.9562 25.3928 12.8578 27.3911 9.16396 27.3911Z" fill="#E64727"/>
<path d="M38.6354 19.5893C38.6354 24.3428 35.4361 27.4008 31.3183 27.4008C27.2006 27.4008 23.9609 24.3025 23.9609 19.5893V9.17383H26.4841V19.7406C26.4841 22.8693 28.6338 24.8777 31.278 24.8777C33.9222 24.8777 36.1123 22.8794 36.1123 19.7406V9.17383H38.6354V19.5893Z" fill="#E64727"/>
<path d="M52.2483 24.8679C55.9522 24.8679 58.9295 21.8502 58.9295 18.0756C58.9295 14.301 55.9522 11.243 52.2483 11.243C48.5443 11.243 45.5772 14.301 45.5772 18.0756C45.5772 21.8502 48.5544 24.8679 52.2483 24.8679ZM43.1146 0H45.6377V11.4348C47.6057 9.58783 49.7554 8.71991 52.2382 8.71991C54.7209 8.71991 56.9615 9.65848 58.6873 11.4348C60.4232 13.211 61.3719 15.5525 61.3719 18.0352C61.3719 20.518 60.4232 22.8998 58.6873 24.6357C56.9615 26.412 54.6604 27.391 52.2382 27.391C46.9901 27.391 43.0742 23.4246 43.0742 17.0865C43.0742 16.7131 43.0742 16.2993 43.1146 15.8855V0Z" fill="#E64727"/>
<path d="M72.7343 11.2432C69.0404 11.2432 66.0632 14.2608 66.0632 18.0354C66.0632 21.81 69.0404 24.868 72.7343 24.868C76.4281 24.868 79.3852 21.8806 79.3852 18.0354C79.3852 14.1902 76.3978 11.2432 72.7343 11.2432ZM72.7343 27.3911C70.2919 27.3911 67.9908 26.4122 66.2448 24.6359C64.519 22.9 63.5703 20.5585 63.5703 18.0354C63.5703 15.5123 64.519 13.1708 66.2448 11.4248C67.9908 9.65866 70.3222 8.67969 72.7343 8.67969C75.3381 8.67969 77.5686 9.57791 79.3448 11.3239C80.9294 12.858 81.6459 15.0178 82.5139 17.4702L85.8747 26.9067H83.2304L81.2321 21.7696C79.5366 25.3928 76.4382 27.3911 72.7343 27.3911Z" fill="#E64727"/>
<path d="M93.4578 36C89.7943 36 87.2409 34.8292 84.9297 31.963L86.928 30.3785C88.8153 32.7906 90.5512 33.7392 93.2661 33.7392C97.9793 33.7392 100.472 31.0244 100.472 25.8166V25.2414C98.8068 26.6846 97.192 27.4314 95.4864 27.4314C93.7808 27.4314 91.7118 26.6342 90.4301 25.4634C88.2097 23.3945 88.0483 21.3154 88.0483 18.5198V9.16406H90.4301V18.4895C90.4301 22.7183 92.4284 24.9487 95.5974 24.9487C97.1113 24.9487 98.5041 24.2725 99.5638 22.91C100.391 21.8503 100.462 20.4575 100.462 18.5299V9.17416H103.066V24.4945C103.066 32.1547 99.7858 36 93.4477 36" fill="#E64727"/>
<path d="M13.182 18.0857C13.182 20.306 11.3856 22.1024 9.16524 22.1024C6.9449 22.1024 5.14844 20.306 5.14844 18.0857C5.14844 15.8653 6.9449 14.0688 9.16524 14.0688C11.3856 14.0688 13.182 15.8653 13.182 18.0857Z" fill="#E64727"/>
</svg>
