<svg width="125" height="27" viewBox="0 0 125 27" fill="none" xmlns="http://www.w3.org/2000/svg">
<g clip-path="url(#clip0_250_2)">
<path d="M17.4 21.6996C15.7 23.6996 12.9 24.8996 10.2 24.8996C4.9 24.8996 1 21.2996 1 15.7996C1 10.8996 4.3 6.59961 9.6 6.59961C14.5 6.59961 17.9 10.6996 17.9 15.5996C17.9 16.0996 17.9 16.4996 17.8 16.8996H5.6C5.9 19.3996 7.8 21.0996 10.3 21.0996C12.3 21.0996 13.9 19.9996 14.7 19.0996L17.4 21.6996ZM13 13.3996C12.9 11.7996 11.4 10.2996 9.5 10.2996C7.6 10.2996 6 11.7996 5.8 13.3996H13Z" fill="#E42127"/>
<path d="M20.4 24.5V6.9H24.9V8.3C26.2 7.2 27.9 6.5 29.9 6.5C32.3 6.5 34.5 7.6 36 9.3C37.2 10.7 37.8 12.5 37.8 15.5V24.4H33.1V15.1C33.1 13.4 32.7 12.5 32 11.8C31.4 11.2 30.4 10.8 29.4 10.8C27.4 10.8 25.8 12.1 25.1 13V24.4L20.4 24.5Z" fill="#E42127"/>
<path d="M83.4 24.5H78.9V23.1C77.5 24.3 75.8 24.9 74 24.9C71.4 24.9 68.9 23.7 67.4 21.9C66 20.3 65.2 18.1 65.2 15.7C65.2 10.5 69 6.5 73.8 6.5C75.8 6.5 77.6 7.2 78.9 8.3V6.9H83.4V24.5ZM78.7 13.1C77.7 11.8 76.2 10.9 74.4 10.9C71.6 10.9 69.9 13.2 69.9 15.7C69.9 18.5 71.9 20.5 74.5 20.5C76.3 20.5 77.8 19.6 78.7 18.3V13.1Z" fill="#E42127"/>
<path d="M117.1 24.5H112.6V23.1C111.2 24.3 109.5 24.9 107.7 24.9C105.1 24.9 102.6 23.7 101.1 21.9C99.7 20.3 98.9 18.1 98.9 15.7C98.9 10.5 102.7 6.5 107.5 6.5C109.5 6.5 111.3 7.2 112.6 8.3V6.9H117.1V24.5ZM112.4 13.1C111.4 11.8 109.9 10.9 108.1 10.9C105.3 10.9 103.6 13.2 103.6 15.7C103.6 18.5 105.6 20.5 108.2 20.5C110 20.5 111.5 19.6 112.4 18.3V13.1Z" fill="#E42127"/>
<path d="M65 6.69961C64.5 6.59961 64.1 6.59961 63.4 6.59961C61.3 6.59961 59.3 7.39961 58.3 8.69961V6.89961H53.8V24.4996H58.5V13.3996C59.1 12.2996 60.7 10.8996 62.8 10.8996C63.5 10.8996 64.2 10.9996 64.5 11.0996L65 11.1996V6.69961Z" fill="#E42127"/>
<path d="M50 19.5996H45.3V24.3996H50V19.5996Z" fill="#E42127"/>
<path d="M40.6 19.6H45.3V10.9H51.1V6.9H45.3V2H40.6V19.6Z" fill="#E42127"/>
<path d="M96.4 19.5996H91.7V24.3996H96.4V19.5996Z" fill="#E42127"/>
<path d="M86.9 19.6H91.7V10.9H97.5V6.9H91.7V2H86.9V19.6Z" fill="#E42127"/>
<path d="M119.1 5C119.1 3.4 120.4 2 122.1 2C123.8 2 125.1 3.3 125.1 5C125.1 6.7 123.8 8 122.1 8C120.4 8 119.1 6.6 119.1 5ZM122 7.3C123.3 7.3 124.3 6.2 124.3 5C124.3 3.8 123.3 2.7 122 2.7C120.7 2.7 119.7 3.8 119.7 5C119.7 6.2 120.7 7.3 122 7.3ZM121.6 5.2V6.5H120.9V3.5H122.1C122.5 3.5 122.7 3.6 122.9 3.7C123.1 3.9 123.2 4.1 123.2 4.4C123.2 4.7 123 5 122.8 5.1C122.7 5.1 122.7 5.2 122.6 5.2L123.5 6.5H122.7L121.9 5.2H121.6ZM122.1 4.6C122.3 4.6 122.3 4.6 122.4 4.5C122.4 4.5 122.5 4.4 122.5 4.3C122.5 4.2 122.5 4.2 122.4 4.1C122.3 4 122.3 4 122.1 4H121.6V4.6H122.1Z" fill="#E42127"/>
</g>
<defs>
<clipPath id="clip0_250_2">
<rect width="125" height="27" fill="white"/>
</clipPath>
</defs>
</svg>
