<?xml version="1.0" encoding="UTF-8"?>
<svg version="1.1" xmlns="http://www.w3.org/2000/svg" width="465" height="145">
<path d="M0 0 C3.64181523 0.57332346 5.28427305 1.93129028 7.8125 4.5625 C8.43769531 5.20316406 9.06289063 5.84382812 9.70703125 6.50390625 C11.57367542 8.53590901 13.37509779 10.59860028 15.171875 12.69140625 C20.10104887 18.35155981 25.51046802 23.52505665 30.88476562 28.7578125 C48.23800402 45.8733353 48.23800402 45.8733353 48.375 57.3125 C48.40335938 58.38113281 48.43171875 59.44976562 48.4609375 60.55078125 C47.48063195 67.8864575 43.46558755 73.14039837 38.28125 78.1796875 C37.47161804 78.98794479 37.47161804 78.98794479 36.64562988 79.81253052 C35.51409669 80.9380719 34.3777572 82.05880072 33.23681641 83.17480469 C31.49376311 84.88110539 29.76748922 86.60311503 28.04296875 88.328125 C26.9358384 89.42543099 25.82779684 90.52181854 24.71875 91.6171875 C24.20509888 92.12861298 23.69144775 92.64003845 23.16223145 93.16696167 C19.39269475 96.83779615 16.84598582 98.76070554 11.625 99.4375 C6.8146701 98.85694294 5.38607407 97.38607407 2 94 C0.34559903 90.69119806 0.25102719 87.54975346 1 84 C2.94316298 80.95429001 5.45821621 78.55114579 8 76 C9.46471238 74.35984113 10.92281178 72.71375796 12.375 71.0625 C16.75130386 66.20412481 21.32777908 61.57281197 26 57 C20.60861497 50.49404979 14.68505294 44.64721734 8.6328125 38.75976562 C-5.05635564 25.26648626 -5.05635564 25.26648626 -5.375 14.8125 C-5.36099616 8.55278297 -4.01959656 4.75173736 0 0 Z " fill="#EB1666" transform="translate(47,2)"/>
<path d="M0 0 C2.87029869 1.79393668 4.49131638 2.98263276 6 6 C6.73847095 10.04480681 6.8964145 13.55296888 4.68359375 17.125 C2.87606258 19.19537128 0.9912994 21.10612229 -1 23 C-2.16794942 24.1653825 -3.33465533 25.33201283 -4.5 26.5 C-5.36431641 27.35078125 -5.36431641 27.35078125 -6.24609375 28.21875 C-9.32069986 31.34128983 -12.152717 34.67123491 -15 38 C-16.07153515 39.25006809 -17.14315518 40.50006343 -18.21484375 41.75 C-19.1432544 42.83331171 -20.07164833 43.91663775 -21 45 C-20.52167725 45.47308594 -20.04335449 45.94617188 -19.55053711 46.43359375 C-17.3434466 48.61964406 -15.14046367 50.80979129 -12.9375 53 C-12.18533203 53.74378906 -11.43316406 54.48757812 -10.65820312 55.25390625 C7.01910612 72.85469034 7.01910612 72.85469034 7.5 83 C7.28982868 87.86396478 6.05924842 92.1476131 3 96 C0.859375 97.21875 0.859375 97.21875 -1 98 C-2.8575016 96.16994917 -4.71097232 94.33607989 -6.5625 92.5 C-7.07619141 91.9946875 -7.58988281 91.489375 -8.11914062 90.96875 C-11.00263995 88.10316061 -13.74784874 85.1729664 -16.3984375 82.08984375 C-20.68739799 77.12867517 -25.39077136 72.61795663 -30.12695312 68.08789062 C-37.42374373 60.94530693 -43.5014347 53.5695843 -44 43 C-43.24833846 33.67939685 -38.1751453 27.86306968 -31.7734375 21.54296875 C-31.18454742 20.9545369 -30.59565735 20.36610504 -29.98892212 19.75984192 C-28.75247306 18.52639639 -27.51361217 17.29536426 -26.27246094 16.06665039 C-24.36850578 14.18106845 -22.47279115 12.28748919 -20.578125 10.39257812 C-19.37286865 9.19223339 -18.16715556 7.99234706 -16.9609375 6.79296875 C-16.39321625 6.22636032 -15.825495 5.65975189 -15.24057007 5.07597351 C-10.22123338 0.1173434 -6.98774194 -0.90514792 0 0 Z " fill="#58BDE0" transform="translate(52,46)"/>
<path d="M0 0 C12 0 12 0 15.296875 2.89453125 C16.15598872 4.1736635 16.97291969 5.4819355 17.75 6.8125 C18.6469629 8.18500859 19.54409995 9.55740339 20.44140625 10.9296875 C21.08166748 11.95787598 21.08166748 11.95787598 21.73486328 13.00683594 C23.58591854 15.92308742 25.62784697 18.66475094 27.6875 21.4375 C28.79198432 22.95810266 29.89628728 24.47883719 31 26 C31.3623877 25.49662109 31.72477539 24.99324219 32.09814453 24.47460938 C33.77295887 22.14915924 35.44897315 19.82457637 37.125 17.5 C37.69476563 16.70851563 38.26453125 15.91703125 38.8515625 15.1015625 C40.00058552 13.50859877 41.16119118 11.92392816 42.33300781 10.34765625 C44.0273697 8.04613056 44.0273697 8.04613056 45.34667969 5.62109375 C46.6796875 3.40625 46.6796875 3.40625 50 0 C53.96 0 57.92 0 62 0 C62 20.13 62 40.26 62 61 C58.7 61 55.4 61 52 61 C51.67 46.81 51.34 32.62 51 18 C41.65190945 30.2860066 41.65190945 30.2860066 33 43 C30.07057086 42.6676685 28.43772621 42.43080116 26.30249023 40.3293457 C25.80950439 39.61866943 25.31651855 38.90799316 24.80859375 38.17578125 C24.25623047 37.39396484 23.70386719 36.61214844 23.13476562 35.80664062 C22.57466797 34.98357422 22.01457031 34.16050781 21.4375 33.3125 C20.87353516 32.50876953 20.30957031 31.70503906 19.72851562 30.87695312 C16.75581926 26.62478043 13.8783499 22.31752485 11 18 C10.67 32.19 10.34 46.38 10 61 C6.7 61 3.4 61 0 61 C0 40.87 0 20.74 0 0 Z " fill="#231F20" transform="translate(120,14)"/>
<path d="M0 0 C3.3 0 6.6 0 10 0 C10.33 1.32 10.66 2.64 11 4 C12.299375 3.01 12.299375 3.01 13.625 2 C19.3096409 -1.23017273 25.68813622 -0.830892 32 0 C38.23302571 2.19418039 41.63888817 6.49999882 45 12 C47.16798741 18.50396222 47.30781164 27.18286114 44.4375 33.5 C41.53022087 38.32815998 37.35560153 42.21479949 32 44 C29.56637528 44.17241708 27.12679404 44.26665768 24.6875 44.3125 C23.39199219 44.34988281 22.09648437 44.38726562 20.76171875 44.42578125 C17 44 17 44 11 40 C10.67 47.59 10.34 55.18 10 63 C6.7 63 3.4 63 0 63 C0 42.21 0 21.42 0 0 Z M12.625 14.6875 C10.65174958 18.70989508 10.14077874 21.60745051 11 26 C13.40100083 30.89434784 15.8758162 33.15529383 21 35 C24.99069931 35.58197698 26.62401025 35.20642575 30.1875 33.25 C33.38100275 30.6951978 35.62229917 28.7479643 36.50390625 24.66796875 C36.61295751 20.05146534 36.37633705 16.72054758 33.5625 12.9375 C30.42051946 9.79551946 27.5682015 8.94104341 23.17578125 8.80078125 C18.32678831 9.24476445 15.78524561 11.1114326 12.625 14.6875 Z " fill="#231F20" transform="translate(194,31)"/>
<path d="M0 0 C0.33 -1.32 0.66 -2.64 1 -4 C3.97 -4 6.94 -4 10 -4 C10 10.52 10 25.04 10 40 C7.03 40 4.06 40 1 40 C0.67 38.35 0.34 36.7 0 35 C-1.051875 35.928125 -1.051875 35.928125 -2.125 36.875 C-7.73953477 41.02487352 -12.47143337 41.40423079 -19.25 40.59375 C-25.43384631 39.25860136 -29.46362449 36.23555597 -32.9375 31 C-36.31434554 24.92621071 -37.01080164 18.45198663 -35.46875 11.66015625 C-33.84364949 6.35208338 -32.05103162 1.89087043 -27.140625 -1.15234375 C-17.51496941 -6.23657161 -9.11277955 -6.01055673 0 0 Z M-24 10 C-26.44344449 13.82452181 -26.2177903 17.41468205 -25.61328125 21.77734375 C-24.58947374 25.48783082 -22.77548746 27.35667861 -20 30 C-15.01233902 31.66255366 -10.01631552 31.83282597 -5.125 29.8125 C-1.90553094 27.06648227 -0.26696904 24.94692054 0.3203125 20.6640625 C0.57742228 14.95622538 -0.03991422 11.40009531 -4 7 C-11.13290609 2.61402158 -18.62330736 3.95122078 -24 10 Z " fill="#231F20" transform="translate(333,35)"/>
<path d="M0 0 C3.64181523 0.57332346 5.28427305 1.93129028 7.8125 4.5625 C8.43769531 5.20316406 9.06289063 5.84382812 9.70703125 6.50390625 C11.56883395 8.53063867 13.36475529 10.58792354 15.15625 12.67578125 C20.19798507 18.46598842 25.7418425 23.75383039 31.23632812 29.109375 C32.04908203 29.91117188 32.86183594 30.71296875 33.69921875 31.5390625 C34.42971436 32.25271973 35.16020996 32.96637695 35.9128418 33.70166016 C38 36 38 36 42 42 C37.38 46.62 32.76 51.24 28 56 C24.1041 54.05205 22.05384619 52.31150473 19.0078125 49.2734375 C18.53938934 48.8069278 18.07096619 48.34041809 17.58834839 47.85977173 C16.59924446 46.87202558 15.6126489 45.88176204 14.62841797 44.88916016 C13.14370736 43.39384103 11.64876688 41.90936802 10.15234375 40.42578125 C-5.05714925 25.24044947 -5.05714925 25.24044947 -5.375 14.8125 C-5.36099616 8.55278297 -4.01959656 4.75173736 0 0 Z " fill="#B72783" transform="translate(47,2)"/>
<path d="M0 0 C2.97 0 5.94 0 9 0 C9.33 6.93 9.66 13.86 10 21 C12.31 19.68 14.62 18.36 17 17 C22.33459994 16.07461021 28.0464973 16.10865387 33 18.5 C36.71777093 21.59814244 38.64883161 24.40734249 40 29 C40.48069152 34.51173279 40.37856548 39.97410994 40.25 45.5 C40.22990494 47.00518458 40.21165948 48.51039505 40.1953125 50.015625 C40.15155298 53.67762737 40.08269216 57.33864578 40 61 C37.03 61 34.06 61 31 61 C30.98541748 60.24380371 30.97083496 59.48760742 30.95581055 58.70849609 C30.88108 55.26349723 30.78450072 51.81944079 30.6875 48.375 C30.66494141 47.18519531 30.64238281 45.99539062 30.61914062 44.76953125 C30.48641663 36.42434425 30.48641663 36.42434425 27 29 C23.24575612 26.49717075 21.47946212 26.80067103 17.16015625 27.390625 C14.7283407 27.90008716 14.7283407 27.90008716 12.5 30.3125 C10.19952086 34.43419179 9.85810662 37.95370794 9.68359375 42.640625 C9.64169922 43.71054687 9.59980469 44.78046875 9.55664062 45.8828125 C9.49766602 47.54957031 9.49766602 47.54957031 9.4375 49.25 C9.39431641 50.37664062 9.35113281 51.50328125 9.30664062 52.6640625 C9.20067985 55.44258954 9.09860858 58.22120391 9 61 C6.03 61 3.06 61 0 61 C0 40.87 0 20.74 0 0 Z " fill="#231F20" transform="translate(249,14)"/>
<path d="M0 0 C0.99 0.66 1.98 1.32 3 2 C2.65120368 5.25543229 1.97866739 6.01873107 -0.5625 8.25 C-1.366875 8.8275 -2.17125 9.405 -3 10 C-3.61875 9.505 -4.2375 9.01 -4.875 8.5 C-9.19051643 6.42855211 -13.27751329 6.38367546 -18 7 C-18.99 7.66 -19.98 8.32 -21 9 C-20.67 10.32 -20.34 11.64 -20 13 C-18.77023437 13.23074219 -17.54046875 13.46148437 -16.2734375 13.69921875 C-14.64043376 14.02769651 -13.00763147 14.35717689 -11.375 14.6875 C-10.56675781 14.83638672 -9.75851562 14.98527344 -8.92578125 15.13867188 C-3.29721526 16.3055697 -0.07738083 17.91618797 4 22 C5.73704155 25.4740831 5.46041616 29.20156669 5 33 C2.77961286 37.44077427 0.50461946 39.91249342 -4 42 C-11.87701556 44.47563346 -20.6145245 43.47466268 -28 40 C-31.0625 37.8125 -31.0625 37.8125 -33 36 C-32.40072174 32.64404172 -31.15377564 30.62198774 -29 28 C-26.14942665 29.12295314 -23.38840114 30.29447353 -20.625 31.625 C-15.9945644 33.38137212 -12.217076 33.90956964 -7.5625 32 C-6.7890625 31.505 -6.7890625 31.505 -6 31 C-6.495 28.525 -6.495 28.525 -7 26 C-8.15757812 25.75765625 -9.31515625 25.5153125 -10.5078125 25.265625 C-12.04702146 24.92774986 -13.58607601 24.58917075 -15.125 24.25 C-16.26582031 24.01410156 -16.26582031 24.01410156 -17.4296875 23.7734375 C-23.11183274 22.49985322 -28.14790672 20.89892861 -31.4375 15.75 C-32.21713956 11.93842881 -32.15030873 8.73093555 -31 5 C-23.50015231 -5.22706504 -10.59247006 -4.6368644 0 0 Z " fill="#231F20" transform="translate(384,33)"/>
<path d="M0 0 C2.5625 2.1875 2.5625 2.1875 4 4 C2.35 5.98 0.7 7.96 -1 10 C-5.75 8.125 -5.75 8.125 -8 7 C-9.66444461 6.9044069 -11.33281963 6.87015355 -13 6.875 C-14.3303125 6.87113281 -14.3303125 6.87113281 -15.6875 6.8671875 C-18.02676966 6.84872098 -18.02676966 6.84872098 -20 8 C-19.67 9.65 -19.34 11.3 -19 13 C-18.443125 13.12117188 -17.88625 13.24234375 -17.3125 13.3671875 C-15.71110805 13.71884452 -14.1109144 14.07598638 -12.51171875 14.4375 C-10.95516159 14.78609134 -9.3956243 15.12196411 -7.83203125 15.4375 C-3.14324414 16.45325272 0.22179551 18.05115747 4 21 C5.98831081 24.97662162 5.52523668 29.67595847 5 34 C3.29330567 37.98760357 0.20138618 40.15537082 -3.6875 41.875 C-11.54397719 44.3559928 -19.62004546 43.5986064 -27 40 C-29.21446437 38.46585561 -31.03654305 36.86276685 -33 35 C-31.68 32.69 -30.36 30.38 -29 28 C-26.06973262 28.61587478 -23.83579023 29.57193084 -21.25 31.0625 C-16.8817397 33.29552859 -13.87478342 33.56872473 -9 33 C-6.4595774 31.93190172 -6.4595774 31.93190172 -5 30 C-5 28.68 -5 27.36 -5 26 C-5.54414551 25.90501221 -6.08829102 25.81002441 -6.64892578 25.7121582 C-9.14487779 25.26503093 -11.63450594 24.78905348 -14.125 24.3125 C-14.9809375 24.16361328 -15.836875 24.01472656 -16.71875 23.86132812 C-22.51084239 22.72518693 -25.83598961 21.22387635 -30 17 C-31.75074064 13.49851873 -31.54675199 9.82083158 -31 6 C-28.05200667 0.86478582 -24.97876546 -0.96106182 -19.32421875 -2.53125 C-12.42291879 -3.92310881 -6.39247798 -3.0015761 0 0 Z " fill="#231F20" transform="translate(447,33)"/>
<path d="M0 0 C5.42715777 2.32767489 8.99879498 6.78927242 13 11 C13.66 11.68964844 14.32 12.37929687 15 13.08984375 C20.23480774 18.78720993 24.12394319 24.06641437 24.5 32 C24.28982868 36.86396478 23.05924842 41.1476131 20 45 C17.859375 46.21875 17.859375 46.21875 16 47 C-4.73022339 26.57613459 -4.73022339 26.57613459 -5.19873047 22.10229492 C-5.11008396 19.79562771 -5.00763928 17.49210754 -4.875 15.1875 C-4.85179688 14.39279297 -4.82859375 13.59808594 -4.8046875 12.77929688 C-4.51610463 7.32778618 -3.42187206 4.26703323 0 0 Z " fill="#80C266" transform="translate(35,97)"/>
<path d="M0 0 C3.3 0 6.6 0 10 0 C10 14.52 10 29.04 10 44 C6.7 44 3.4 44 0 44 C0 29.48 0 14.96 0 0 Z " fill="#231F20" transform="translate(397,31)"/>
<path d="M0 0 C3.25543229 0.34879632 4.01873107 1.02133261 6.25 3.5625 C6.8275 4.366875 7.405 5.17125 8 6 C7.35546875 6.79664062 6.7109375 7.59328125 6.046875 8.4140625 C3.30487956 12.52705566 3.33459749 16.55294285 3.25 21.375 C3.20552734 22.62216797 3.20552734 22.62216797 3.16015625 23.89453125 C3.08999601 25.92917827 3.04267105 27.96459091 3 30 C-1.00348746 28.39289933 -3.7152015 25.58204033 -6.6875 22.5625 C-7.18572266 22.07201172 -7.68394531 21.58152344 -8.19726562 21.07617188 C-10.52764849 18.73314107 -11.94061236 17.17816293 -13 14 C-12.39671875 13.40832031 -11.7934375 12.81664063 -11.171875 12.20703125 C-5.26989543 6.38766162 -5.26989543 6.38766162 0 0 Z " fill="#3AABA3" transform="translate(28,91)"/>
<path d="M0 0 C4.78251668 1.19562917 6.34772821 3.37138399 9.25 7.0625 C9.93835938 7.91424805 9.93835938 7.91424805 10.640625 8.78320312 C11.76900148 10.1819198 12.8856663 11.59007014 14 13 C14.33 8.71 14.66 4.42 15 0 C15.99 0 16.98 0 18 0 C18 7.26 18 14.52 18 22 C13.21162514 20.80290628 11.931528 18.75889577 9.25 14.9375 C8.83878906 14.36966797 8.42757812 13.80183594 8.00390625 13.21679688 C6.99304964 11.81805343 5.99522794 10.40990625 5 9 C4.67 13.29 4.34 17.58 4 22 C2.68 22 1.36 22 0 22 C0 14.74 0 7.48 0 0 Z " fill="#231F20" transform="translate(205,103)"/>
<path d="M0 0 C1.65 0 3.3 0 5 0 C7.97 6.93 10.94 13.86 14 21 C12.68 21.33 11.36 21.66 10 22 C9.34 21.01 8.68 20.02 8 19 C5.11404054 18.41518879 5.11404054 18.41518879 1.875 18.3125 C0.77929688 18.24675781 -0.31640625 18.18101563 -1.4453125 18.11328125 C-2.28835938 18.07589844 -3.13140625 18.03851563 -4 18 C-4.33 19.32 -4.66 20.64 -5 22 C-6.32 22 -7.64 22 -9 22 C-6.66062389 14.33204498 -3.45231194 7.22862726 0 0 Z M2 5 C1.01 7.97 0.02 10.94 -1 14 C1.31 14 3.62 14 6 14 C5.01 11.03 4.02 8.06 3 5 C2.67 5 2.34 5 2 5 Z " fill="#231F20" transform="translate(315,103)"/>
<path d="M0 0 C1.32 0 2.64 0 4 0 C4 7.26 4 14.52 4 22 C-8.48286215 22.37077808 -8.48286215 22.37077808 -10.86328125 20.6640625 C-12.62053464 18.09158846 -12.87842225 16.10023258 -13 13 C-10.77647059 7.38823529 -10.77647059 7.38823529 -8 6 C-2.46153846 5.76923077 -2.46153846 5.76923077 0 7 C0 4.69 0 2.38 0 0 Z M-5 9 C-6.32 9.99 -7.64 10.98 -9 12 C-8.67 13.98 -8.34 15.96 -8 18 C-5.09926819 18.67801034 -5.09926819 18.67801034 -2 19 C0.20857238 17.17213728 0.20857238 17.17213728 0.4375 14.5625 C0.26416051 11.74700141 0.26416051 11.74700141 -2.5 10.1875 C-3.325 9.795625 -4.15 9.40375 -5 9 Z " fill="#231F20" transform="translate(448,103)"/>
<path d="M0 0 C1.32 0.33 2.64 0.66 4 1 C4.33 0.67 4.66 0.34 5 0 C8.9923815 -0.54441566 10.55734813 -0.3175546 13.875 2.0625 C16.52580508 5.72684819 16.64496629 7.56585675 16 12 C15.0625 14.4375 15.0625 14.4375 13 16 C9.97134658 16.32756713 7.03338927 16.22893504 4 16 C3.67 18.31 3.34 20.62 3 23 C2.01 23 1.02 23 0 23 C0 15.41 0 7.82 0 0 Z M5 4 C2.735616 6.69155201 2.735616 6.69155201 3.25 9.0625 C3.92532718 11.19476975 3.92532718 11.19476975 6 13 C8.55460214 13.07272562 8.55460214 13.07272562 11 12 C12.57223394 9.69464365 12.57223394 9.69464365 13 7 C12.34 6.01 11.68 5.02 11 4 C8 3.5 8 3.5 5 4 Z " fill="#231F20" transform="translate(362,109)"/>
<path d="M0 0 C1.32 0.33 2.64 0.66 4 1 C4.33 0.67 4.66 0.34 5 0 C8.9923815 -0.54441566 10.55734813 -0.3175546 13.875 2.0625 C16 5 16 5 16.5625 8.5625 C16 12 16 12 14.5 14.4375 C10.86353539 16.71029038 8.24217465 16.28281164 4 16 C3.67 18.31 3.34 20.62 3 23 C2.01 23 1.02 23 0 23 C0 15.41 0 7.82 0 0 Z M5 4 C2.735616 6.69155201 2.735616 6.69155201 3.25 9.0625 C3.92532718 11.19476975 3.92532718 11.19476975 6 13 C8.54713404 12.99077298 8.54713404 12.99077298 11 12 C12.57540068 10.26596664 12.57540068 10.26596664 13 8 C12.21690533 5.76529595 12.21690533 5.76529595 11 4 C8.08365871 3.7497843 8.08365871 3.7497843 5 4 Z " fill="#231F20" transform="translate(337,109)"/>
<path d="M0 0 C2.4375 1.625 2.4375 1.625 4 4 C4.25 7.25 4.25 7.25 4 10 C-1.445 10.495 -1.445 10.495 -7 11 C-5.96298597 12.26626225 -5.96298597 12.26626225 -3.6875 12.0625 C-2.800625 12.041875 -1.91375 12.02125 -1 12 C0.32 12 1.64 12 3 12 C2.34 13.32 1.68 14.64 1 16 C-6.99180328 16.6147541 -6.99180328 16.6147541 -10.5625 14.4375 C-12.58925458 11.00082919 -12.6198676 8.92582814 -12 5 C-8.59008657 0.14345663 -5.84624621 -0.95665847 0 0 Z M-8 5 C-8 5.66 -8 6.32 -8 7 C-5.36 7 -2.72 7 0 7 C-0.66 5.68 -1.32 4.36 -2 3 C-5.18490007 2.7226499 -5.18490007 2.7226499 -8 5 Z " fill="#231F20" transform="translate(424,109)"/>
<path d="M0 0 C2.9375 2.1875 2.9375 2.1875 5 5 C5 6.65 5 8.3 5 10 C1.04 10 -2.92 10 -7 10 C-7 10.66 -7 11.32 -7 12 C-3.65747276 12.07427838 -1.1964086 12.06546953 2 11 C2.99 12.485 2.99 12.485 4 14 C0.90219052 16.06520632 0.0459519 16.29477024 -3.5 16.3125 C-4.66015625 16.33763672 -4.66015625 16.33763672 -5.84375 16.36328125 C-8 16 -8 16 -9.75390625 14.7578125 C-12.06920943 11.49171083 -11.60704055 7.82159618 -11 4 C-8.21528417 -0.56693397 -5.09718974 -0.80481943 0 0 Z M-6.25 4.9375 C-7.11625 5.9584375 -7.11625 5.9584375 -8 7 C-5.03 7 -2.06 7 1 7 C0.36058256 3.9194894 0.36058256 3.9194894 -1.8125 3.0625 C-4.21828941 2.74787037 -4.21828941 2.74787037 -6.25 4.9375 Z " fill="#231F20" transform="translate(178,109)"/>
<path d="M0 0 C3.4375 0.5625 3.4375 0.5625 5.875 2.1875 C7.83394605 5.165098 7.75535906 7.06605037 7.4375 10.5625 C1.9925 11.0575 1.9925 11.0575 -3.5625 11.5625 C-3.2325 11.8925 -2.9025 12.2225 -2.5625 12.5625 C-0.64825543 12.4606629 -0.64825543 12.4606629 1.5 12.125 C3.4490625 11.8465625 3.4490625 11.8465625 5.4375 11.5625 C5.7675 12.8825 6.0975 14.2025 6.4375 15.5625 C2.96533162 17.29858419 -0.77430127 17.15461632 -4.5625 16.5625 C-7.62268871 14.02478253 -8.39700185 12.44515681 -9.125 8.5625 C-8.10942024 3.14607461 -5.36154281 0.84655939 0 0 Z M-4.5625 5.5625 C-4.5625 6.2225 -4.5625 6.8825 -4.5625 7.5625 C-1.5925 7.5625 1.3775 7.5625 4.4375 7.5625 C4.1075 6.5725 3.7775 5.5825 3.4375 4.5625 C-0.74060069 3.37318813 -0.74060069 3.37318813 -4.5625 5.5625 Z " fill="#231F20" transform="translate(240.5625,108.4375)"/>
<path d="M0 0 C5.94 0 11.88 0 18 0 C18 1.32 18 2.64 18 4 C15.69 4 13.38 4 11 4 C11 9.94 11 15.88 11 22 C9.68 22 8.36 22 7 22 C7 16.06 7 10.12 7 4 C4.69 4 2.38 4 0 4 C0 2.68 0 1.36 0 0 Z " fill="#231F20" transform="translate(118,103)"/>
<path d="M0 0 C0.99 0 1.98 0 3 0 C3 2.31 3 4.62 3 7 C4.0725 6.773125 5.145 6.54625 6.25 6.3125 C10 6 10 6 12.21875 7.0625 C14.80779934 9.87865894 14.39856598 11.93620902 14.25 15.6875 C14.21390625 16.86699219 14.1778125 18.04648438 14.140625 19.26171875 C14.07101563 20.61716797 14.07101563 20.61716797 14 22 C13.01 22 12.02 22 11 22 C10.67 18.04 10.34 14.08 10 10 C8.02 10.66 6.04 11.32 4 12 C3.67 15.3 3.34 18.6 3 22 C2.01 22 1.02 22 0 22 C0 14.74 0 7.48 0 0 Z " fill="#231F20" transform="translate(144,103)"/>
<path d="M0 0 C1.32 0 2.64 0 4 0 C4.66 0.99 5.32 1.98 6 3 C6.99 2.67 7.98 2.34 9 2 C9.33 1.34 9.66 0.68 10 0 C11.32 0 12.64 0 14 0 C13.690625 0.721875 13.38125 1.44375 13.0625 2.1875 C11.58089248 5.99867562 11.58089248 5.99867562 11 10 C12.83317376 13.29248108 12.83317376 13.29248108 15 16 C12.625 16.1875 12.625 16.1875 10 16 C9.34 15.01 8.68 14.02 8 13 C4.88214887 13.64644661 4.88214887 13.64644661 4 16 C2.68 16 1.36 16 0 16 C0.309375 15.278125 0.61875 14.55625 0.9375 13.8125 C1.957316 11.11298705 2.7785825 8.87842747 3 6 C1.62831762 3.80961577 1.62831762 3.80961577 0 2 C0 1.34 0 0.68 0 0 Z " fill="#231F20" transform="translate(255,109)"/>
<path d="M0 0 C3.5625 0.3125 3.5625 0.3125 5.5625 1.375 C7.16217215 4.47436478 6.29592508 7.01208714 5.5625 10.3125 C3.66761048 12.20738952 0.99110854 11.49269112 -1.52734375 11.54296875 C-3.4375 11.3125 -3.4375 11.3125 -5.4375 9.3125 C-5.6875 5.8125 -5.6875 5.8125 -5.4375 2.3125 C-3.4375 0.3125 -3.4375 0.3125 0 0 Z " fill="#231F20" transform="translate(401.4375,13.6875)"/>
<path d="M0 0 C1.32 1.32 2.64 2.64 4 4 C-0.62 8.62 -5.24 13.24 -10 18 C-11.32 17.34 -12.64 16.68 -14 16 C-12.63757574 12.93286756 -11.10300295 10.88159707 -8.6875 8.5625 C-7.76324219 7.6653125 -7.76324219 7.6653125 -6.8203125 6.75 C-5.91925781 5.88375 -5.91925781 5.88375 -5 5 C-4.01839457 4.02327818 -3.03887306 3.04445233 -2.0625 2.0625 C-1.381875 1.381875 -0.70125 0.70125 0 0 Z " fill="#7A3B7B" transform="translate(85,40)"/>
<path d="M0 0 C0.99 0 1.98 0 3 0 C3 1.32 3 2.64 3 4 C4.65 4 6.3 4 8 4 C8 4.99 8 5.98 8 7 C6.35 7 4.7 7 3 7 C3.33 9.97 3.66 12.94 4 16 C5.32 16.33 6.64 16.66 8 17 C8 17.99 8 18.98 8 20 C5.125 20.125 5.125 20.125 2 20 C0 18 0 18 -0.1953125 15.3984375 C-0.17210937 14.40070313 -0.14890625 13.40296875 -0.125 12.375 C-0.10695313 11.37210938 -0.08890625 10.36921875 -0.0703125 9.3359375 C-0.04710937 8.56507812 -0.02390625 7.79421875 0 7 C-0.99 7 -1.98 7 -3 7 C-3 6.01 -3 5.02 -3 4 C-2.01 4 -1.02 4 0 4 C0 2.68 0 1.36 0 0 Z " fill="#231F20" transform="translate(279,105)"/>
<path d="M0 0 C0.99 0.33 1.98 0.66 3 1 C2.3772572 5.92825764 1.8705059 9.80201641 -2.125 13.0625 C-3.07375 13.701875 -4.0225 14.34125 -5 15 C-6.9375 14.1875 -6.9375 14.1875 -9 13 C-9.33 12.01 -9.66 11.02 -10 10 C-6.7 6.7 -3.4 3.4 0 0 Z " fill="#21838B" transform="translate(25,95)"/>
<path d="M0 0 C0.99 0 1.98 0 3 0 C3 7.26 3 14.52 3 22 C2.01 22 1.02 22 0 22 C0 14.74 0 7.48 0 0 Z " fill="#231F20" transform="translate(387,103)"/>
<path d="M0 0 C2.50866154 1.1759351 3.51540594 2.63637921 5 4.9375 C2.69 7.2475 0.38 9.5575 -2 11.9375 C-3 8.9375 -3 8.9375 -3 4.9375 C-3.66 4.2775 -4.32 3.6175 -5 2.9375 C-2.58536585 -0.08079268 -2.58536585 -0.08079268 0 0 Z " fill="#3FA18E" transform="translate(30,91.0625)"/>
<path d="M0 0 C0.66 0.33 1.32 0.66 2 1 C0.86272141 4.18438005 -0.0808674 5.05222687 -3 6.9375 C-6.30571879 9.21018166 -6.77366106 10.32098318 -8 14 C-9.625 15.8125 -9.625 15.8125 -11 17 C-11.99 16.67 -12.98 16.34 -14 16 C-12.63757574 12.93286756 -11.10300295 10.88159707 -8.6875 8.5625 C-7.76324219 7.6653125 -7.76324219 7.6653125 -6.8203125 6.75 C-5.91925781 5.88375 -5.91925781 5.88375 -5 5 C-4.01839457 4.02327818 -3.03887306 3.04445233 -2.0625 2.0625 C-1.381875 1.381875 -0.70125 0.70125 0 0 Z " fill="#864187" transform="translate(85,40)"/>
<path d="M0 0 C0.99 0 1.98 0 3 0 C3 5.28 3 10.56 3 16 C2.01 16 1.02 16 0 16 C0 10.72 0 5.44 0 0 Z " fill="#231F20" transform="translate(400,109)"/>
<path d="M0 0 C0.33 0.66 0.66 1.32 1 2 C-1.65654657 5.73884332 -3.58110387 7.64978174 -8 9 C-8 5 -8 5 -6.25 2.8125 C-4.0478642 1.03855727 -2.75721313 0.39388759 0 0 Z " fill="#1F96A8" transform="translate(26,101)"/>
<path d="M0 0 C2.1875 0.3125 2.1875 0.3125 4 1 C3.34 2.32 2.68 3.64 2 5 C1.01 5 0.02 5 -1 5 C-1.66 4.34 -2.32 3.68 -3 3 C-1.75 1.4375 -1.75 1.4375 0 0 Z " fill="#368A81" transform="translate(28,91)"/>
<path d="M0 0 C0.33 0.99 0.66 1.98 1 3 C-0.32 4.32 -1.64 5.64 -3 7 C-3.99 6.67 -4.98 6.34 -6 6 C-4.95125002 3.37812506 -4.35068687 2.20628639 -1.875 0.75 C-1.25625 0.5025 -0.6375 0.255 0 0 Z " fill="#8C347D" transform="translate(77,50)"/>
<path d="M0 0 C0.66 0.33 1.32 0.66 2 1 C-1.3 4.3 -4.6 7.6 -8 11 C-8.66 10.67 -9.32 10.34 -10 10 C-6.66666667 6.66666667 -3.33333333 3.33333333 0 0 Z " fill="#773370" transform="translate(83,47)"/>
<path d="M0 0 C0.99 0.33 1.98 0.66 3 1 C1.35 2.65 -0.3 4.3 -2 6 C-2.33 5.01 -2.66 4.02 -3 3 C-2.01 2.01 -1.02 1.02 0 0 Z " fill="#107C9B" transform="translate(18,102)"/>
<path d="M0 0 C1.32 0.33 2.64 0.66 4 1 C4 1.99 4 2.98 4 4 C2.68 4 1.36 4 0 4 C0 2.68 0 1.36 0 0 Z " fill="#231F20" transform="translate(400,103)"/>
</svg>
